<svg xmlns="http://www.w3.org/2000/svg" viewBox="0 0 32 32" fill="none">
  <!-- Vault door shape -->
  <rect x="3" y="3" width="26" height="26" rx="4" fill="#0c0a1d" stroke="#d4a843" stroke-width="1.5"/>
  <!-- Inner vault ring -->
  <circle cx="16" cy="16" r="9" fill="none" stroke="#d4a843" stroke-width="1.2"/>
  <!-- Vault handle / keyhole -->
  <circle cx="16" cy="14" r="2.5" fill="#7c3aed"/>
  <rect x="15" y="15.5" width="2" height="4" rx="0.5" fill="#7c3aed"/>
  <!-- Illumination rays -->
  <path d="M16 4l.5 3-.5-3-.5 3z" fill="#d4a843" opacity="0.6"/>
  <path d="M16 25l.5 3-.5-3-.5 3z" fill="#d4a843" opacity="0.6"/>
  <path d="M4 16l3 .5-3-.5 3-.5z" fill="#d4a843" opacity="0.6"/>
  <path d="M25 16l3 .5-3-.5 3-.5z" fill="#d4a843" opacity="0.6"/>
  <!-- Sparkle accents -->
  <path d="M24 7l.6 1.2 1.2.6-1.2.6-.6 1.2-.6-1.2-1.2-.6 1.2-.6z" fill="#d4a843"/>
  <path d="M7 24l.4.8.8.4-.8.4-.4.8-.4-.8-.8-.4.8-.4z" fill="#7c3aed" opacity="0.8"/>
</svg>
